<mxfile host="app.diagrams.net" agent="Mozilla/5.0 (Windows NT 10.0; Win64; x64) AppleWebKit/537.36 (KHTML, like Gecko) Chrome/136.0.0.0 Safari/537.36" version="27.0.5">
  <diagram name="Page-1" id="ohIy58JHMw5l5xpPR0C9">
    <mxGraphModel grid="1" page="1" gridSize="10" guides="1" tooltips="1" connect="1" arrows="1" fold="1" pageScale="1" pageWidth="1169" pageHeight="1654" math="0" shadow="0">
      <root>
        <mxCell id="0" />
        <mxCell id="1" parent="0" />
        <mxCell id="upVl98tdXsfsgYgxSnc5-1" value="" style="rounded=0;whiteSpace=wrap;html=1;dashed=1;fillColor=none;strokeColor=light-dark(#4D4D4D,#DD6D6D);" vertex="1" parent="1">
          <mxGeometry x="40" y="80" width="160" height="440" as="geometry" />
        </mxCell>
        <mxCell id="upVl98tdXsfsgYgxSnc5-2" value="&lt;div&gt;&lt;font style=&quot;font-size: 15px;&quot;&gt;&lt;b&gt;Sources&lt;/b&gt;&lt;/font&gt;&lt;/div&gt;" style="rounded=0;whiteSpace=wrap;html=1;strokeColor=none;" vertex="1" parent="1">
          <mxGeometry x="80" y="70" width="80" height="20" as="geometry" />
        </mxCell>
        <mxCell id="upVl98tdXsfsgYgxSnc5-3" value="" style="rounded=0;whiteSpace=wrap;html=1;dashed=1;fillColor=none;strokeColor=light-dark(#6B6B6B,#DD6D6D);" vertex="1" parent="1">
          <mxGeometry x="240" y="80" width="590" height="440" as="geometry" />
        </mxCell>
        <mxCell id="upVl98tdXsfsgYgxSnc5-5" value="&lt;span style=&quot;font-size: 15px;&quot;&gt;&lt;b&gt;Data Warehouse&lt;/b&gt;&lt;/span&gt;" style="rounded=0;whiteSpace=wrap;html=1;strokeColor=none;" vertex="1" parent="1">
          <mxGeometry x="450" y="70" width="170" height="20" as="geometry" />
        </mxCell>
        <mxCell id="upVl98tdXsfsgYgxSnc5-6" value="" style="rounded=0;whiteSpace=wrap;html=1;dashed=1;fillColor=none;strokeColor=light-dark(#4D4D4D,#DD6D6D);" vertex="1" parent="1">
          <mxGeometry x="870" y="80" width="170" height="440" as="geometry" />
        </mxCell>
        <mxCell id="upVl98tdXsfsgYgxSnc5-7" value="&lt;span style=&quot;font-size: 15px;&quot;&gt;&lt;b&gt;Consume&lt;/b&gt;&lt;/span&gt;" style="rounded=0;whiteSpace=wrap;html=1;strokeColor=none;" vertex="1" parent="1">
          <mxGeometry x="915" y="70" width="80" height="20" as="geometry" />
        </mxCell>
        <mxCell id="upVl98tdXsfsgYgxSnc5-14" value="" style="group" vertex="1" connectable="0" parent="1">
          <mxGeometry x="260" y="100" width="160" height="410" as="geometry" />
        </mxCell>
        <mxCell id="upVl98tdXsfsgYgxSnc5-8" value="&lt;font style=&quot;font-size: 13px;&quot;&gt;&lt;b&gt;Bronze Layer&lt;/b&gt;&lt;/font&gt;" style="rounded=0;whiteSpace=wrap;html=1;fillColor=#ffe6cc;strokeColor=#d79b00;" vertex="1" parent="upVl98tdXsfsgYgxSnc5-14">
          <mxGeometry width="152.3809523809524" height="28.571428571428573" as="geometry" />
        </mxCell>
        <mxCell id="upVl98tdXsfsgYgxSnc5-9" value="" style="rounded=0;whiteSpace=wrap;html=1;fillColor=none;strokeColor=#d79b00;" vertex="1" parent="upVl98tdXsfsgYgxSnc5-14">
          <mxGeometry y="28.57" width="152.38" height="381.43" as="geometry" />
        </mxCell>
        <mxCell id="upVl98tdXsfsgYgxSnc5-41" value="" style="html=1;verticalLabelPosition=bottom;align=center;labelBackgroundColor=#ffffff;verticalAlign=top;strokeWidth=2;strokeColor=#d79b00;shadow=0;dashed=0;shape=mxgraph.ios7.icons.data;fillColor=#ffe6cc;" vertex="1" parent="upVl98tdXsfsgYgxSnc5-14">
          <mxGeometry x="40" y="40" width="58.86" height="70" as="geometry" />
        </mxCell>
        <mxCell id="upVl98tdXsfsgYgxSnc5-53" value="&lt;font style=&quot;font-size: 13px;&quot;&gt;Raw data&lt;/font&gt;" style="text;html=1;align=center;verticalAlign=middle;whiteSpace=wrap;rounded=0;" vertex="1" parent="upVl98tdXsfsgYgxSnc5-14">
          <mxGeometry x="23.716190476190476" y="99.99571428571426" width="91.42857142857143" height="42.857142857142854" as="geometry" />
        </mxCell>
        <mxCell id="upVl98tdXsfsgYgxSnc5-55" value="" style="line;strokeWidth=2;html=1;fillColor=#f5f5f5;fontColor=#333333;strokeColor=#666666;" vertex="1" parent="upVl98tdXsfsgYgxSnc5-14">
          <mxGeometry x="7.6190476190476195" y="139.99857142857138" width="137.14285714285714" height="14.285714285714286" as="geometry" />
        </mxCell>
        <mxCell id="upVl98tdXsfsgYgxSnc5-65" value="&lt;font style=&quot;font-size: 12px;&quot;&gt;&lt;b style=&quot;&quot;&gt;Object Type: &lt;/b&gt;Tables&lt;/font&gt;&lt;div&gt;&lt;b&gt;&lt;font size=&quot;3&quot;&gt;&lt;br&gt;&lt;/font&gt;&lt;/b&gt;&lt;div&gt;&lt;b&gt;&lt;font style=&quot;font-size: 11px;&quot;&gt;Load:&lt;/font&gt;&lt;/b&gt;&lt;/div&gt;&lt;/div&gt;&lt;div&gt;&lt;font style=&quot;font-size: 11px;&quot;&gt;&lt;span style=&quot;font-weight: bold; white-space: pre;&quot;&gt;&#x9;&lt;/span&gt;&lt;b&gt;- &lt;/b&gt;Batch Processing&lt;br&gt;&lt;/font&gt;&lt;/div&gt;&lt;div&gt;&lt;font style=&quot;font-size: 11px;&quot;&gt;&lt;span style=&quot;white-space: pre;&quot;&gt;&#x9;&lt;/span&gt;- Full Load&lt;/font&gt;&lt;/div&gt;&lt;div&gt;&lt;font style=&quot;font-size: 11px;&quot;&gt;&lt;span style=&quot;white-space: pre;&quot;&gt;&#x9;&lt;/span&gt;- Trunc &amp;amp; insert)&lt;/font&gt;&lt;br&gt;&lt;/div&gt;&lt;div&gt;&lt;br&gt;&lt;/div&gt;&lt;div&gt;&lt;span style=&quot;font-size: 11px;&quot;&gt;No &lt;b&gt;Transformations&lt;/b&gt;&lt;/span&gt;&lt;/div&gt;&lt;div&gt;&lt;span style=&quot;font-size: 11px;&quot;&gt;&lt;b&gt;&lt;br&gt;&lt;/b&gt;&lt;/span&gt;&lt;/div&gt;&lt;div&gt;&lt;span style=&quot;font-size: 11px;&quot;&gt;&lt;b&gt;Data Model: &lt;/b&gt;None&lt;/span&gt;&lt;/div&gt;" style="text;html=1;align=left;verticalAlign=middle;whiteSpace=wrap;rounded=0;" vertex="1" parent="upVl98tdXsfsgYgxSnc5-14">
          <mxGeometry x="7.62" y="230" width="152.38" height="30" as="geometry" />
        </mxCell>
        <mxCell id="upVl98tdXsfsgYgxSnc5-15" value="" style="group" vertex="1" connectable="0" parent="1">
          <mxGeometry x="450" y="100" width="170" height="410" as="geometry" />
        </mxCell>
        <mxCell id="upVl98tdXsfsgYgxSnc5-16" value="&lt;b style=&quot;&quot;&gt;&lt;font style=&quot;font-size: 14px;&quot;&gt;Silver Layer&lt;/font&gt;&lt;/b&gt;" style="rounded=0;whiteSpace=wrap;html=1;fillColor=#f5f5f5;strokeColor=#666666;fontColor=#333333;" vertex="1" parent="upVl98tdXsfsgYgxSnc5-15">
          <mxGeometry width="170" height="28.571428571428573" as="geometry" />
        </mxCell>
        <mxCell id="upVl98tdXsfsgYgxSnc5-17" value="" style="rounded=0;whiteSpace=wrap;html=1;fillColor=none;strokeColor=#6B6B6B;" vertex="1" parent="upVl98tdXsfsgYgxSnc5-15">
          <mxGeometry y="28.57" width="170" height="381.43" as="geometry" />
        </mxCell>
        <mxCell id="upVl98tdXsfsgYgxSnc5-46" value="" style="html=1;verticalLabelPosition=bottom;align=center;labelBackgroundColor=#ffffff;verticalAlign=top;strokeWidth=2;strokeColor=#666666;shadow=0;dashed=0;shape=mxgraph.ios7.icons.data;fillColor=#f5f5f5;fontColor=#333333;" vertex="1" parent="upVl98tdXsfsgYgxSnc5-15">
          <mxGeometry x="50.190000000000005" y="40" width="61.12" height="70" as="geometry" />
        </mxCell>
        <mxCell id="upVl98tdXsfsgYgxSnc5-52" value="&lt;font style=&quot;font-size: 13px;&quot;&gt;Clean Standardized data&lt;/font&gt;" style="text;html=1;align=center;verticalAlign=middle;whiteSpace=wrap;rounded=0;" vertex="1" parent="upVl98tdXsfsgYgxSnc5-15">
          <mxGeometry x="8.5" y="110" width="144.5" height="42.86" as="geometry" />
        </mxCell>
        <mxCell id="upVl98tdXsfsgYgxSnc5-57" value="" style="line;strokeWidth=2;html=1;fillColor=#f5f5f5;fontColor=#333333;strokeColor=#666666;" vertex="1" parent="upVl98tdXsfsgYgxSnc5-15">
          <mxGeometry x="8.503333333333332" y="139.9985714285714" width="153" height="14.285714285714286" as="geometry" />
        </mxCell>
        <mxCell id="upVl98tdXsfsgYgxSnc5-66" value="&lt;font style=&quot;font-size: 11px;&quot;&gt;&lt;b style=&quot;&quot;&gt;Object Type: &lt;/b&gt;Tables&lt;/font&gt;&lt;div&gt;&lt;b&gt;&lt;font style=&quot;font-size: 11px;&quot;&gt;&lt;br&gt;&lt;/font&gt;&lt;/b&gt;&lt;div&gt;&lt;b&gt;&lt;font style=&quot;font-size: 11px;&quot;&gt;Load:&lt;/font&gt;&lt;/b&gt;&lt;/div&gt;&lt;/div&gt;&lt;div&gt;&lt;ul&gt;&lt;li&gt;&lt;font style=&quot;font-size: 11px;&quot;&gt;&lt;b&gt;&amp;nbsp;&lt;/b&gt;Batch Processing&lt;/font&gt;&lt;/li&gt;&lt;li&gt;&lt;font style=&quot;font-size: 11px;&quot;&gt;&amp;nbsp;Full Load&lt;/font&gt;&lt;/li&gt;&lt;li&gt;&lt;font style=&quot;font-size: 11px;&quot;&gt;&lt;font style=&quot;&quot;&gt;&amp;nbsp;Trunc &amp;amp; insert)&lt;/font&gt;&lt;/font&gt;&lt;/li&gt;&lt;/ul&gt;&lt;/div&gt;&lt;div&gt;&lt;b&gt;&lt;font style=&quot;font-size: 11px;&quot;&gt;Transformations:&lt;/font&gt;&lt;/b&gt;&lt;/div&gt;&lt;div&gt;&lt;ul&gt;&lt;li&gt;&lt;font style=&quot;font-size: 11px;&quot;&gt;Data Cleaning&lt;/font&gt;&lt;/li&gt;&lt;li&gt;&lt;font style=&quot;font-size: 11px;&quot;&gt;Data Standardization&lt;/font&gt;&lt;/li&gt;&lt;li&gt;&lt;font style=&quot;font-size: 11px;&quot;&gt;Data Normalization&lt;/font&gt;&lt;/li&gt;&lt;li&gt;&lt;font style=&quot;font-size: 11px;&quot;&gt;Derived Columns&lt;/font&gt;&lt;/li&gt;&lt;li&gt;&lt;font style=&quot;font-size: 11px;&quot;&gt;Data Enrichment&lt;/font&gt;&lt;/li&gt;&lt;/ul&gt;&lt;/div&gt;&lt;div&gt;&lt;font style=&quot;font-size: 11px;&quot;&gt;&lt;b style=&quot;&quot;&gt;Data Model: &lt;/b&gt;None&lt;/font&gt;&lt;/div&gt;" style="text;html=1;align=left;verticalAlign=middle;whiteSpace=wrap;rounded=0;" vertex="1" parent="upVl98tdXsfsgYgxSnc5-15">
          <mxGeometry x="5.67333333333333" y="270" width="158.66666666666669" height="30" as="geometry" />
        </mxCell>
        <mxCell id="upVl98tdXsfsgYgxSnc5-19" value="" style="group" vertex="1" connectable="0" parent="1">
          <mxGeometry x="660" y="100" width="155" height="410" as="geometry" />
        </mxCell>
        <mxCell id="upVl98tdXsfsgYgxSnc5-20" value="&lt;font style=&quot;font-size: 14px;&quot;&gt;&lt;b&gt;Gold Layer&lt;/b&gt;&lt;/font&gt;" style="rounded=0;whiteSpace=wrap;html=1;fillColor=#fff2cc;strokeColor=#d6b656;" vertex="1" parent="upVl98tdXsfsgYgxSnc5-19">
          <mxGeometry width="150" height="30" as="geometry" />
        </mxCell>
        <mxCell id="upVl98tdXsfsgYgxSnc5-21" value="" style="rounded=0;whiteSpace=wrap;html=1;fillColor=none;strokeColor=#FFEEB3;" vertex="1" parent="upVl98tdXsfsgYgxSnc5-19">
          <mxGeometry y="24.11764705882353" width="150" height="385.88235294117646" as="geometry" />
        </mxCell>
        <mxCell id="upVl98tdXsfsgYgxSnc5-54" value="&lt;font style=&quot;font-size: 13px;&quot;&gt;Business Ready data&lt;/font&gt;" style="text;html=1;align=center;verticalAlign=middle;whiteSpace=wrap;rounded=0;" vertex="1" parent="upVl98tdXsfsgYgxSnc5-19">
          <mxGeometry x="15.360000000000001" y="111.75" width="119.29" height="36.17225" as="geometry" />
        </mxCell>
        <mxCell id="upVl98tdXsfsgYgxSnc5-59" value="" style="line;strokeWidth=2;html=1;fillColor=#f5f5f5;fontColor=#333333;strokeColor=#666666;" vertex="1" parent="upVl98tdXsfsgYgxSnc5-19">
          <mxGeometry x="10" y="147.92000000000002" width="135" height="5.75" as="geometry" />
        </mxCell>
        <mxCell id="upVl98tdXsfsgYgxSnc5-60" value="" style="html=1;verticalLabelPosition=bottom;align=center;labelBackgroundColor=#ffffff;verticalAlign=top;strokeWidth=2;strokeColor=#d6b656;shadow=0;dashed=0;shape=mxgraph.ios7.icons.data;fillColor=#fff2cc;" vertex="1" parent="upVl98tdXsfsgYgxSnc5-19">
          <mxGeometry x="40" y="40" width="58.75" height="71.75" as="geometry" />
        </mxCell>
        <mxCell id="upVl98tdXsfsgYgxSnc5-69" value="&lt;font style=&quot;font-size: 12px;&quot;&gt;&lt;b style=&quot;&quot;&gt;Object Type: &lt;/b&gt;Views&lt;/font&gt;&lt;div&gt;&lt;br&gt;&lt;/div&gt;&lt;div&gt;No &lt;b&gt;Load&lt;/b&gt;&lt;/div&gt;&lt;div&gt;&lt;br&gt;&lt;/div&gt;&lt;div&gt;&lt;span style=&quot;font-size: 11px;&quot;&gt;&lt;b&gt;Transformations:&lt;/b&gt;&lt;/span&gt;&lt;/div&gt;&lt;div&gt;&lt;ul&gt;&lt;li&gt;Data Integrations&lt;/li&gt;&lt;li&gt;Aggregations&lt;/li&gt;&lt;li&gt;Business Logic&lt;/li&gt;&lt;/ul&gt;&lt;/div&gt;&lt;div&gt;&lt;span style=&quot;font-size: 11px;&quot;&gt;&lt;b&gt;Data Model:&amp;nbsp;&lt;/b&gt;&lt;/span&gt;&lt;/div&gt;&lt;div&gt;&lt;ul&gt;&lt;li&gt;&lt;span style=&quot;font-size: 11px;&quot;&gt;Start Schema&lt;/span&gt;&lt;/li&gt;&lt;li&gt;&lt;span style=&quot;font-size: 11px;&quot;&gt;Flat Table&lt;/span&gt;&lt;/li&gt;&lt;li&gt;&lt;span style=&quot;font-size: 11px;&quot;&gt;Aggregation Table&lt;/span&gt;&lt;/li&gt;&lt;/ul&gt;&lt;/div&gt;" style="text;html=1;align=left;verticalAlign=middle;whiteSpace=wrap;rounded=0;" vertex="1" parent="upVl98tdXsfsgYgxSnc5-19">
          <mxGeometry x="10" y="260" width="140" height="30.749999999999996" as="geometry" />
        </mxCell>
        <mxCell id="upVl98tdXsfsgYgxSnc5-24" value="" style="group" vertex="1" connectable="0" parent="1">
          <mxGeometry x="90" y="180" width="60" height="50" as="geometry" />
        </mxCell>
        <mxCell id="upVl98tdXsfsgYgxSnc5-22" value="&lt;b&gt;CRM&lt;/b&gt;" style="image;aspect=fixed;html=1;points=[];align=center;fontSize=12;image=img/lib/azure2/general/Folder_Blank.svg;" vertex="1" parent="upVl98tdXsfsgYgxSnc5-24">
          <mxGeometry width="49.29" height="40" as="geometry" />
        </mxCell>
        <mxCell id="upVl98tdXsfsgYgxSnc5-23" value="" style="verticalLabelPosition=bottom;html=1;verticalAlign=top;align=center;strokeColor=none;fillColor=#00BEF2;shape=mxgraph.azure.cloud_services_configuration_file;pointerEvents=1;" vertex="1" parent="upVl98tdXsfsgYgxSnc5-24">
          <mxGeometry x="40" y="30" width="20" height="20" as="geometry" />
        </mxCell>
        <mxCell id="upVl98tdXsfsgYgxSnc5-25" value="" style="group" vertex="1" connectable="0" parent="1">
          <mxGeometry x="90" y="270" width="60" height="50" as="geometry" />
        </mxCell>
        <mxCell id="upVl98tdXsfsgYgxSnc5-26" value="&lt;b&gt;ERP&lt;/b&gt;" style="image;aspect=fixed;html=1;points=[];align=center;fontSize=12;image=img/lib/azure2/general/Folder_Blank.svg;" vertex="1" parent="upVl98tdXsfsgYgxSnc5-25">
          <mxGeometry width="49.29" height="40" as="geometry" />
        </mxCell>
        <mxCell id="upVl98tdXsfsgYgxSnc5-27" value="" style="verticalLabelPosition=bottom;html=1;verticalAlign=top;align=center;strokeColor=none;fillColor=#00BEF2;shape=mxgraph.azure.cloud_services_configuration_file;pointerEvents=1;" vertex="1" parent="upVl98tdXsfsgYgxSnc5-25">
          <mxGeometry x="40" y="30" width="20" height="20" as="geometry" />
        </mxCell>
        <mxCell id="upVl98tdXsfsgYgxSnc5-36" value="" style="line;strokeWidth=2;html=1;fillColor=#f5f5f5;fontColor=#333333;strokeColor=#666666;" vertex="1" parent="1">
          <mxGeometry x="70" y="360" width="100" height="10" as="geometry" />
        </mxCell>
        <mxCell id="upVl98tdXsfsgYgxSnc5-37" value="&lt;font style=&quot;font-size: 13px;&quot;&gt;&lt;b style=&quot;&quot;&gt;Object Type:&amp;nbsp;&lt;/b&gt;csv file&lt;/font&gt;&lt;div&gt;&lt;span style=&quot;font-size: 13px;&quot;&gt;&lt;br&gt;&lt;/span&gt;&lt;div&gt;&lt;div&gt;&lt;font style=&quot;font-size: 13px;&quot;&gt;&lt;b style=&quot;background-color: transparent; color: light-dark(rgb(0, 0, 0), rgb(255, 255, 255));&quot;&gt;Interface: &lt;/b&gt;&lt;span style=&quot;background-color: transparent; color: light-dark(rgb(0, 0, 0), rgb(255, 255, 255));&quot;&gt;File in Folder&lt;/span&gt;&lt;/font&gt;&lt;/div&gt;&lt;/div&gt;&lt;/div&gt;" style="text;html=1;align=left;verticalAlign=middle;whiteSpace=wrap;rounded=0;" vertex="1" parent="1">
          <mxGeometry x="50" y="390" width="140" height="30" as="geometry" />
        </mxCell>
        <mxCell id="upVl98tdXsfsgYgxSnc5-39" style="edgeStyle=orthogonalEdgeStyle;rounded=0;orthogonalLoop=1;jettySize=auto;html=1;exitX=0.5;exitY=1;exitDx=0;exitDy=0;" edge="1" parent="1" source="upVl98tdXsfsgYgxSnc5-37" target="upVl98tdXsfsgYgxSnc5-37">
          <mxGeometry relative="1" as="geometry" />
        </mxCell>
        <mxCell id="upVl98tdXsfsgYgxSnc5-48" value="" style="shape=mxgraph.arrows.arrow_right;html=1;verticalLabelPosition=bottom;verticalAlign=top;strokeWidth=2;strokeColor=#0e8088;fillColor=#b0e3e6;" vertex="1" parent="1">
          <mxGeometry x="190" y="269.63" width="50" height="30" as="geometry" />
        </mxCell>
        <mxCell id="upVl98tdXsfsgYgxSnc5-62" value="" style="shape=mxgraph.arrows.arrow_right;html=1;verticalLabelPosition=bottom;verticalAlign=top;strokeWidth=2;strokeColor=#0e8088;fillColor=#b0e3e6;" vertex="1" parent="1">
          <mxGeometry x="410" y="270" width="40" height="30" as="geometry" />
        </mxCell>
        <mxCell id="upVl98tdXsfsgYgxSnc5-64" value="" style="shape=mxgraph.arrows.arrow_right;html=1;verticalLabelPosition=bottom;verticalAlign=top;strokeWidth=2;strokeColor=#0e8088;fillColor=#b0e3e6;" vertex="1" parent="1">
          <mxGeometry x="820" y="270" width="50" height="30" as="geometry" />
        </mxCell>
        <mxCell id="upVl98tdXsfsgYgxSnc5-63" value="" style="shape=mxgraph.arrows.arrow_right;html=1;verticalLabelPosition=bottom;verticalAlign=top;strokeWidth=2;strokeColor=#0e8088;fillColor=#b0e3e6;" vertex="1" parent="1">
          <mxGeometry x="620" y="268.88" width="40" height="30.75" as="geometry" />
        </mxCell>
        <mxCell id="upVl98tdXsfsgYgxSnc5-74" value="Bi &amp;amp; Reporting" style="image;aspect=fixed;html=1;points=[];align=center;fontSize=12;image=img/lib/azure2/power_platform/PowerBI.svg;" vertex="1" parent="1">
          <mxGeometry x="932.5" y="120" width="45" height="60" as="geometry" />
        </mxCell>
        <mxCell id="upVl98tdXsfsgYgxSnc5-75" value="&lt;font style=&quot;color: rgb(0, 0, 0);&quot;&gt;Ad-Hoc&lt;/font&gt;&lt;div&gt;&lt;font style=&quot;color: rgb(0, 0, 0);&quot;&gt;SQL Queries&lt;/font&gt;&lt;/div&gt;" style="sketch=0;pointerEvents=1;shadow=0;dashed=0;html=1;strokeColor=#006EAF;labelPosition=center;verticalLabelPosition=bottom;verticalAlign=top;align=center;fillColor=#1ba1e2;shape=mxgraph.mscae.oms.log_search;fontColor=#ffffff;" vertex="1" parent="1">
          <mxGeometry x="932.5" y="230" width="50" height="50" as="geometry" />
        </mxCell>
        <mxCell id="upVl98tdXsfsgYgxSnc5-76" value="Machine Learning" style="sketch=0;points=[[0,0,0],[0.25,0,0],[0.5,0,0],[0.75,0,0],[1,0,0],[0,1,0],[0.25,1,0],[0.5,1,0],[0.75,1,0],[1,1,0],[0,0.25,0],[0,0.5,0],[0,0.75,0],[1,0.25,0],[1,0.5,0],[1,0.75,0]];outlineConnect=0;fontColor=#232F3E;fillColor=#01A88D;strokeColor=#ffffff;dashed=0;verticalLabelPosition=bottom;verticalAlign=top;align=center;html=1;fontSize=12;fontStyle=0;aspect=fixed;shape=mxgraph.aws4.resourceIcon;resIcon=mxgraph.aws4.machine_learning;" vertex="1" parent="1">
          <mxGeometry x="920" y="350" width="70" height="70" as="geometry" />
        </mxCell>
        <mxCell id="KvtTs9FYQevEVhxfWlrE-1" value="&lt;h1 style=&quot;margin-top: 0px;&quot;&gt;High Level Architecture&lt;/h1&gt;" style="text;html=1;whiteSpace=wrap;overflow=hidden;rounded=0;" vertex="1" parent="1">
          <mxGeometry x="40" width="340" height="40" as="geometry" />
        </mxCell>
      </root>
    </mxGraphModel>
  </diagram>
</mxfile>
